STARTFONT 2.1
FONT -DEC-Miriam-Medium-O-Normal--12-120-75-75-P-70-ISO8859-8
SIZE 12 75 75
FONTBOUNDINGBOX 13 14 0 -3

STARTPROPERTIES 26
FONTNAME_REGISTRY ""
FAMILY_NAME "Miriam"
FOUNDRY "DEC"
WEIGHT_NAME "Medium"
SLANT "O"
SETWIDTH_NAME "Normal"
ADD_STYLE_NAME ""
PIXEL_SIZE 12
RESOLUTION_X 75
RESOLUTION_Y 75
SPACING "P"
AVERAGE_WIDTH 70
CHARSET_REGISTRY "ISO8859"
CHARSET_ENCODING "8"
CHARSET_COLLECTIONS "ASCII ISO8859-8 "
FULL_NAME "Miriam Medium Oblique"
COPYRIGHT "Digital Israel"
CAP_HEIGHT 9
X_HEIGHT 7
_DEC_DEVICE_FONTNAMES "PS=Miriam-Oblique-ISOLatinHebrew"
QUAD_WIDTH 7
POINT_SIZE 120
WEIGHT 10
DEFAULT_CHAR 0
FONT_DESCENT 3
FONT_ASCENT 11
ENDPROPERTIES

CHARS 152

STARTCHAR space
ENCODING 32
SWIDTH 320 0
DWIDTH 4 0
BBX 1 1 0 0
BITMAP
00
ENDCHAR

STARTCHAR exclam
ENCODING 33
SWIDTH 320 0
DWIDTH 4 0
BBX 2 9 1 0
BITMAP
40
40
40
40
80
80
80
00
80
ENDCHAR

STARTCHAR quotedbl
ENCODING 34
SWIDTH 400 0
DWIDTH 5 0
BBX 4 3 1 6
BITMAP
50
50
A0
ENDCHAR

STARTCHAR numbersign
ENCODING 35
SWIDTH 560 0
DWIDTH 7 0
BBX 7 8 0 1
BITMAP
14
14
7E
28
28
FC
50
50
ENDCHAR

STARTCHAR dollar
ENCODING 36
SWIDTH 560 0
DWIDTH 7 0
BBX 7 11 0 -1
BITMAP
08
3A
56
52
50
38
2C
A4
E4
B8
20
ENDCHAR

STARTCHAR percent
ENCODING 37
SWIDTH 800 0
DWIDTH 10 0
BBX 8 9 1 0
BITMAP
62
94
94
68
10
16
29
49
46
ENDCHAR

STARTCHAR ampersand
ENCODING 38
SWIDTH 720 0
DWIDTH 9 0
BBX 9 9 0 0
BITMAP
1800
2400
2400
1980
3200
4C00
8400
8A00
7100
ENDCHAR

STARTCHAR quoteright
ENCODING 39
SWIDTH 240 0
DWIDTH 3 0
BBX 2 2 1 7
BITMAP
40
80
ENDCHAR

STARTCHAR parenleft
ENCODING 40
SWIDTH 400 0
DWIDTH 5 0
BBX 4 11 1 -2
BITMAP
10
20
40
40
80
80
80
80
40
40
20
ENDCHAR

STARTCHAR parenright
ENCODING 41
SWIDTH 400 0
DWIDTH 5 0
BBX 4 11 0 -2
BITMAP
40
20
20
10
10
10
10
20
20
40
80
ENDCHAR

STARTCHAR asterisk
ENCODING 42
SWIDTH 400 0
DWIDTH 5 0
BBX 3 3 1 6
BITMAP
A0
40
A0
ENDCHAR

STARTCHAR plus
ENCODING 43
SWIDTH 640 0
DWIDTH 8 0
BBX 6 7 1 1
BITMAP
10
10
10
FC
20
20
20
ENDCHAR

STARTCHAR comma
ENCODING 44
SWIDTH 240 0
DWIDTH 3 0
BBX 2 3 0 -1
BITMAP
40
40
80
ENDCHAR

STARTCHAR minus
ENCODING 45
SWIDTH 560 0
DWIDTH 7 0
BBX 5 1 1 4
BITMAP
F8
ENDCHAR

STARTCHAR period
ENCODING 46
SWIDTH 240 0
DWIDTH 3 0
BBX 1 2 0 0
BITMAP
80
80
ENDCHAR

STARTCHAR slash
ENCODING 47
SWIDTH 480 0
DWIDTH 6 0
BBX 6 11 0 -2
BITMAP
04
08
08
10
10
20
20
40
40
80
80
ENDCHAR

STARTCHAR zero
ENCODING 48
SWIDTH 560 0
DWIDTH 7 0
BBX 7 9 0 0
BITMAP
3C
42
42
42
84
84
84
84
78
ENDCHAR

STARTCHAR one
ENCODING 49
SWIDTH 560 0
DWIDTH 7 0
BBX 3 9 2 0
BITMAP
E0
20
20
20
40
40
40
40
E0
ENDCHAR

STARTCHAR two
ENCODING 50
SWIDTH 560 0
DWIDTH 7 0
BBX 7 9 0 0
BITMAP
1C
22
22
02
04
18
20
44
FC
ENDCHAR

STARTCHAR three
ENCODING 51
SWIDTH 560 0
DWIDTH 7 0
BBX 7 9 0 0
BITMAP
1C
22
02
04
18
04
84
84
78
ENDCHAR

STARTCHAR four
ENCODING 52
SWIDTH 560 0
DWIDTH 7 0
BBX 6 9 0 0
BITMAP
04
0C
14
24
48
88
FC
08
1C
ENDCHAR

STARTCHAR five
ENCODING 53
SWIDTH 560 0
DWIDTH 7 0
BBX 7 9 0 0
BITMAP
3E
20
40
78
44
04
84
88
70
ENDCHAR

STARTCHAR six
ENCODING 54
SWIDTH 560 0
DWIDTH 7 0
BBX 6 9 0 0
BITMAP
08
10
20
58
C4
84
84
88
70
ENDCHAR

STARTCHAR seven
ENCODING 55
SWIDTH 560 0
DWIDTH 7 0
BBX 6 9 1 0
BITMAP
FC
84
08
10
10
20
20
40
40
ENDCHAR

STARTCHAR eight
ENCODING 56
SWIDTH 560 0
DWIDTH 7 0
BBX 7 9 0 0
BITMAP
1C
22
22
14
38
44
84
84
78
ENDCHAR

STARTCHAR nine
ENCODING 57
SWIDTH 560 0
DWIDTH 7 0
BBX 6 9 1 0
BITMAP
38
44
84
84
88
78
10
20
40
ENDCHAR

STARTCHAR colon
ENCODING 58
SWIDTH 320 0
DWIDTH 4 0
BBX 2 6 1 0
BITMAP
40
40
00
00
80
80
ENDCHAR

STARTCHAR semicolon
ENCODING 59
SWIDTH 320 0
DWIDTH 4 0
BBX 3 7 0 -1
BITMAP
20
20
00
00
40
40
80
ENDCHAR

STARTCHAR less
ENCODING 60
SWIDTH 800 0
DWIDTH 10 0
BBX 8 7 1 0
BITMAP
03
0C
30
C0
30
0C
03
ENDCHAR

STARTCHAR equal
ENCODING 61
SWIDTH 640 0
DWIDTH 8 0
BBX 7 3 1 3
BITMAP
7E
00
FC
ENDCHAR

STARTCHAR greater
ENCODING 62
SWIDTH 800 0
DWIDTH 10 0
BBX 8 7 1 0
BITMAP
C0
30
0C
03
0C
30
C0
ENDCHAR

STARTCHAR question
ENCODING 63
SWIDTH 480 0
DWIDTH 6 0
BBX 5 9 1 0
BITMAP
70
88
88
10
20
40
40
00
40
ENDCHAR

STARTCHAR at
ENCODING 64
SWIDTH 880 0
DWIDTH 11 0
BBX 10 9 1 0
BITMAP
1F00
6080
4D40
9240
A440
A480
9B00
4080
3F00
ENDCHAR

STARTCHAR A
ENCODING 65
SWIDTH 800 0
DWIDTH 10 0
BBX 9 9 0 0
BITMAP
0C00
0400
0A00
1200
1200
3F00
4100
4100
E380
ENDCHAR

STARTCHAR B
ENCODING 66
SWIDTH 560 0
DWIDTH 7 0
BBX 7 9 0 0
BITMAP
7C
22
22
24
3C
42
42
44
F8
ENDCHAR

STARTCHAR C
ENCODING 67
SWIDTH 640 0
DWIDTH 8 0
BBX 8 9 0 0
BITMAP
1D
63
41
80
80
80
82
44
38
ENDCHAR

STARTCHAR D
ENCODING 68
SWIDTH 720 0
DWIDTH 9 0
BBX 9 9 0 0
BITMAP
7E00
2100
2080
2080
4080
4100
4100
4200
FC00
ENDCHAR

STARTCHAR E
ENCODING 69
SWIDTH 560 0
DWIDTH 7 0
BBX 7 9 0 0
BITMAP
7E
22
20
20
38
40
40
44
FC
ENDCHAR

STARTCHAR F
ENCODING 70
SWIDTH 560 0
DWIDTH 7 0
BBX 7 9 0 0
BITMAP
7E
22
20
20
38
40
40
40
E0
ENDCHAR

STARTCHAR G
ENCODING 71
SWIDTH 640 0
DWIDTH 8 0
BBX 8 9 0 0
BITMAP
1D
63
41
80
80
9E
82
46
3A
ENDCHAR

STARTCHAR H
ENCODING 72
SWIDTH 720 0
DWIDTH 9 0
BBX 9 9 0 0
BITMAP
7380
2100
2100
2100
7E00
4200
4200
4200
E700
ENDCHAR

STARTCHAR I
ENCODING 73
SWIDTH 320 0
DWIDTH 4 0
BBX 4 9 0 0
BITMAP
70
20
20
20
40
40
40
40
E0
ENDCHAR

STARTCHAR J
ENCODING 74
SWIDTH 480 0
DWIDTH 6 0
BBX 7 9 0 0
BITMAP
0E
04
04
04
08
08
88
88
70
ENDCHAR

STARTCHAR K
ENCODING 75
SWIDTH 640 0
DWIDTH 8 0
BBX 9 9 0 0
BITMAP
7380
2200
2400
2800
3000
5000
4800
4400
E700
ENDCHAR

STARTCHAR L
ENCODING 76
SWIDTH 480 0
DWIDTH 6 0
BBX 6 9 0 0
BITMAP
70
20
20
20
40
40
40
44
FC
ENDCHAR

STARTCHAR M
ENCODING 77
SWIDTH 960 0
DWIDTH 12 0
BBX 12 9 0 0
BITMAP
7070
3060
30A0
2920
4940
4A40
4640
4440
E4E0
ENDCHAR

STARTCHAR N
ENCODING 78
SWIDTH 800 0
DWIDTH 10 0
BBX 10 9 0 0
BITMAP
61C0
3080
3080
2880
2880
4500
4500
4300
E100
ENDCHAR

STARTCHAR O
ENCODING 79
SWIDTH 720 0
DWIDTH 9 0
BBX 9 9 0 0
BITMAP
1E00
6100
4080
8080
8080
8080
8100
4300
3C00
ENDCHAR

STARTCHAR P
ENCODING 80
SWIDTH 560 0
DWIDTH 7 0
BBX 7 9 0 0
BITMAP
7C
22
22
22
44
78
40
40
E0
ENDCHAR

STARTCHAR Q
ENCODING 81
SWIDTH 720 0
DWIDTH 9 0
BBX 9 9 0 0
BITMAP
1E00
6100
4080
8080
8080
B880
C700
4280
3D80
ENDCHAR

STARTCHAR R
ENCODING 82
SWIDTH 640 0
DWIDTH 8 0
BBX 8 9 0 0
BITMAP
7E
21
21
21
42
5C
48
44
E3
ENDCHAR

STARTCHAR S
ENCODING 83
SWIDTH 560 0
DWIDTH 7 0
BBX 7 9 0 0
BITMAP
1A
26
42
40
38
04
84
C4
B8
ENDCHAR

STARTCHAR T
ENCODING 84
SWIDTH 640 0
DWIDTH 8 0
BBX 7 9 1 0
BITMAP
FE
92
10
10
20
20
20
20
70
ENDCHAR

STARTCHAR U
ENCODING 85
SWIDTH 720 0
DWIDTH 9 0
BBX 8 9 1 0
BITMAP
E7
42
42
42
84
84
84
84
78
ENDCHAR

STARTCHAR V
ENCODING 86
SWIDTH 640 0
DWIDTH 8 0
BBX 9 9 0 0
BITMAP
E380
4100
4200
4200
2400
2800
2800
1000
1000
ENDCHAR

STARTCHAR W
ENCODING 87
SWIDTH 960 0
DWIDTH 12 0
BBX 13 9 0 0
BITMAP
E238
4210
4620
4520
4940
2940
3180
3180
2100
ENDCHAR

STARTCHAR X
ENCODING 88
SWIDTH 640 0
DWIDTH 8 0
BBX 9 9 0 0
BITMAP
7380
2100
1200
0C00
0800
1400
2200
4100
E380
ENDCHAR

STARTCHAR Y
ENCODING 89
SWIDTH 640 0
DWIDTH 8 0
BBX 9 9 0 0
BITMAP
E380
4100
4200
2400
2800
1000
1000
1000
3800
ENDCHAR

STARTCHAR Z
ENCODING 90
SWIDTH 480 0
DWIDTH 6 0
BBX 7 9 0 0
BITMAP
7E
44
08
10
20
20
40
84
FC
ENDCHAR

STARTCHAR bracketleft
ENCODING 91
SWIDTH 320 0
DWIDTH 4 0
BBX 5 11 0 -2
BITMAP
38
20
20
20
40
40
40
40
80
80
E0
ENDCHAR

STARTCHAR backslash
ENCODING 92
SWIDTH 560 0
DWIDTH 7 0
BBX 3 9 2 0
BITMAP
80
80
80
40
40
40
20
20
20
ENDCHAR

STARTCHAR bracketright
ENCODING 93
SWIDTH 400 0
DWIDTH 5 0
BBX 5 11 0 -2
BITMAP
38
08
08
08
10
10
10
10
20
20
E0
ENDCHAR

STARTCHAR asciicircum
ENCODING 94
SWIDTH 560 0
DWIDTH 7 0
BBX 5 6 1 3
BITMAP
20
20
50
50
88
88
ENDCHAR

STARTCHAR underscore
ENCODING 95
SWIDTH 480 0
DWIDTH 6 0
BBX 7 1 0 -2
BITMAP
FE
ENDCHAR

STARTCHAR quoteleft
ENCODING 96
SWIDTH 240 0
DWIDTH 3 0
BBX 2 2 1 7
BITMAP
80
40
ENDCHAR

STARTCHAR a
ENCODING 97
SWIDTH 640 0
DWIDTH 8 0
BBX 8 7 1 0
BITMAP
3B
46
84
84
84
8C
76
ENDCHAR

STARTCHAR b
ENCODING 98
SWIDTH 640 0
DWIDTH 8 0
BBX 8 9 0 0
BITMAP
60
20
2E
31
41
41
41
62
DC
ENDCHAR

STARTCHAR c
ENCODING 99
SWIDTH 640 0
DWIDTH 8 0
BBX 7 7 1 0
BITMAP
1A
66
44
80
80
C4
78
ENDCHAR

STARTCHAR d
ENCODING 100
SWIDTH 640 0
DWIDTH 8 0
BBX 7 9 1 0
BITMAP
06
02
3A
46
82
84
84
8C
76
ENDCHAR

STARTCHAR e
ENCODING 101
SWIDTH 560 0
DWIDTH 7 0
BBX 7 7 0 0
BITMAP
1C
62
42
FE
80
44
38
ENDCHAR

STARTCHAR f
ENCODING 102
SWIDTH 320 0
DWIDTH 4 0
BBX 5 9 0 0
BITMAP
18
20
70
20
40
40
40
40
E0
ENDCHAR

STARTCHAR g
ENCODING 103
SWIDTH 640 0
DWIDTH 8 0
BBX 9 9 0 -2
BITMAP
1D80
2300
4200
4200
4200
4600
3A00
8400
7800
ENDCHAR

STARTCHAR h
ENCODING 104
SWIDTH 640 0
DWIDTH 8 0
BBX 8 9 0 0
BITMAP
60
20
2E
31
21
42
42
42
E7
ENDCHAR

STARTCHAR i
ENCODING 105
SWIDTH 240 0
DWIDTH 3 0
BBX 3 9 0 0
BITMAP
20
00
60
20
20
40
40
40
E0
ENDCHAR

STARTCHAR j
ENCODING 106
SWIDTH 240 0
DWIDTH 3 0
BBX 4 12 0 -3
BITMAP
10
00
30
10
10
20
20
20
20
40
40
80
ENDCHAR

STARTCHAR k
ENCODING 107
SWIDTH 560 0
DWIDTH 7 0
BBX 8 9 0 0
BITMAP
60
20
27
24
48
70
48
44
EE
ENDCHAR

STARTCHAR l
ENCODING 108
SWIDTH 240 0
DWIDTH 3 0
BBX 3 9 0 0
BITMAP
60
20
20
20
40
40
40
40
E0
ENDCHAR

STARTCHAR m
ENCODING 109
SWIDTH 880 0
DWIDTH 11 0
BBX 11 7 0 0
BITMAP
6CC0
3320
2220
4440
4440
4440
EEE0
ENDCHAR

STARTCHAR n
ENCODING 110
SWIDTH 640 0
DWIDTH 8 0
BBX 8 7 0 0
BITMAP
6E
31
21
42
42
42
E7
ENDCHAR

STARTCHAR o
ENCODING 111
SWIDTH 640 0
DWIDTH 8 0
BBX 7 7 1 0
BITMAP
3C
46
82
82
82
C4
78
ENDCHAR

STARTCHAR p
ENCODING 112
SWIDTH 560 0
DWIDTH 7 0
BBX 8 10 0 -3
BITMAP
36
19
11
21
21
32
2C
40
40
E0
ENDCHAR

STARTCHAR q
ENCODING 113
SWIDTH 560 0
DWIDTH 7 0
BBX 8 10 0 -3
BITMAP
3B
46
84
84
84
8C
74
08
08
1C
ENDCHAR

STARTCHAR r
ENCODING 114
SWIDTH 400 0
DWIDTH 5 0
BBX 6 7 0 0
BITMAP
6C
30
20
40
40
40
E0
ENDCHAR

STARTCHAR s
ENCODING 115
SWIDTH 480 0
DWIDTH 6 0
BBX 6 7 0 0
BITMAP
3C
44
40
30
08
88
F0
ENDCHAR

STARTCHAR t
ENCODING 116
SWIDTH 320 0
DWIDTH 4 0
BBX 3 9 1 0
BITMAP
40
40
E0
40
40
80
80
80
C0
ENDCHAR

STARTCHAR u
ENCODING 117
SWIDTH 640 0
DWIDTH 8 0
BBX 7 7 1 0
BITMAP
C6
42
42
84
84
8C
76
ENDCHAR

STARTCHAR v
ENCODING 118
SWIDTH 640 0
DWIDTH 8 0
BBX 8 7 1 0
BITMAP
E7
42
44
48
48
30
30
ENDCHAR

STARTCHAR w
ENCODING 119
SWIDTH 880 0
DWIDTH 11 0
BBX 11 7 1 0
BITMAP
E0E0
4440
4480
4C80
5500
2200
2200
ENDCHAR

STARTCHAR x
ENCODING 120
SWIDTH 560 0
DWIDTH 7 0
BBX 8 7 0 0
BITMAP
77
24
18
10
28
44
EE
ENDCHAR

STARTCHAR y
ENCODING 121
SWIDTH 640 0
DWIDTH 8 0
BBX 8 10 1 -3
BITMAP
E7
42
44
48
48
30
20
20
40
E0
ENDCHAR

STARTCHAR z
ENCODING 122
SWIDTH 400 0
DWIDTH 5 0
BBX 6 7 0 0
BITMAP
7C
48
10
20
40
88
F8
ENDCHAR

STARTCHAR braceleft
ENCODING 123
SWIDTH 320 0
DWIDTH 4 0
BBX 4 11 0 -2
BITMAP
10
20
20
20
40
80
40
40
80
80
40
ENDCHAR

STARTCHAR bar
ENCODING 124
SWIDTH 560 0
DWIDTH 7 0
BBX 2 9 3 0
BITMAP
40
40
40
40
80
80
80
80
80
ENDCHAR

STARTCHAR braceright
ENCODING 125
SWIDTH 320 0
DWIDTH 4 0
BBX 4 11 0 -2
BITMAP
20
10
10
10
20
10
20
20
20
40
80
ENDCHAR

STARTCHAR asciitilde
ENCODING 126
SWIDTH 640 0
DWIDTH 8 0
BBX 7 2 0 3
BITMAP
72
9C
ENDCHAR

STARTCHAR cent
ENCODING 162
SWIDTH 560 0
DWIDTH 7 0
BBX 6 7 1 1
BITMAP
10
7C
94
A0
A8
70
40
ENDCHAR

STARTCHAR sterling
ENCODING 163
SWIDTH 640 0
DWIDTH 8 0
BBX 8 9 0 0
BITMAP
1D
23
21
20
7C
10
12
22
FC
ENDCHAR

STARTCHAR currency
ENCODING 164
SWIDTH 720 0
DWIDTH 9 0
BBX 7 7 1 1
BITMAP
42
3C
42
82
84
78
84
ENDCHAR

STARTCHAR yen
ENCODING 165
SWIDTH 800 0
DWIDTH 10 0
BBX 8 9 1 0
BITMAP
E7
42
24
EF
10
FE
20
20
70
ENDCHAR

STARTCHAR brokenbar
ENCODING 166
SWIDTH 560 0
DWIDTH 7 0
BBX 2 9 3 0
BITMAP
40
40
40
00
00
80
80
80
80
ENDCHAR

STARTCHAR section
ENCODING 167
SWIDTH 480 0
DWIDTH 6 0
BBX 7 11 0 -2
BITMAP
1C
22
20
38
44
44
44
38
08
88
70
ENDCHAR

STARTCHAR dieresis
ENCODING 168
SWIDTH 400 0
DWIDTH 5 0
BBX 3 1 2 8
BITMAP
A0
ENDCHAR

STARTCHAR copyright
ENCODING 169
SWIDTH 880 0
DWIDTH 11 0
BBX 10 9 1 0
BITMAP
1F00
6080
4E40
9140
A040
A240
9C80
4180
3E00
ENDCHAR

STARTCHAR multiply
ENCODING 170
SWIDTH 640 0
DWIDTH 8 0
BBX 8 7 0 1
BITMAP
41
22
14
18
28
44
82
ENDCHAR

STARTCHAR guillemotleft
ENCODING 171
SWIDTH 480 0
DWIDTH 6 0
BBX 4 3 1 2
BITMAP
50
A0
50
ENDCHAR

STARTCHAR logicalnot
ENCODING 172
SWIDTH 640 0
DWIDTH 8 0
BBX 6 4 1 2
BITMAP
FC
04
08
08
ENDCHAR

STARTCHAR hyphen
ENCODING 173
SWIDTH 320 0
DWIDTH 4 0
BBX 3 1 1 3
BITMAP
E0
ENDCHAR

STARTCHAR registered
ENCODING 174
SWIDTH 880 0
DWIDTH 11 0
BBX 10 9 1 0
BITMAP
1F00
6080
4E40
9240
9E40
A440
A280
4180
3E00
ENDCHAR

STARTCHAR macron
ENCODING 175
SWIDTH 480 0
DWIDTH 6 0
BBX 4 1 2 8
BITMAP
F0
ENDCHAR

STARTCHAR degree
ENCODING 176
SWIDTH 400 0
DWIDTH 5 0
BBX 4 4 1 5
BITMAP
60
90
90
60
ENDCHAR

STARTCHAR plusminus
ENCODING 177
SWIDTH 640 0
DWIDTH 8 0
BBX 7 7 0 1
BITMAP
08
08
7E
10
10
00
FC
ENDCHAR

STARTCHAR twosuperior
ENCODING 178
SWIDTH 320 0
DWIDTH 4 0
BBX 4 5 0 4
BITMAP
70
10
20
40
F0
ENDCHAR

STARTCHAR threesuperior
ENCODING 179
SWIDTH 320 0
DWIDTH 4 0
BBX 4 5 0 4
BITMAP
70
10
60
10
E0
ENDCHAR

STARTCHAR acute
ENCODING 180
SWIDTH 320 0
DWIDTH 4 0
BBX 2 2 2 8
BITMAP
40
80
ENDCHAR

STARTCHAR mu
ENCODING 181
SWIDTH 640 0
DWIDTH 8 0
BBX 8 10 0 -3
BITMAP
63
21
21
42
42
46
BB
80
80
80
ENDCHAR

STARTCHAR paragraph
ENCODING 182
SWIDTH 560 0
DWIDTH 7 0
BBX 7 11 0 -2
BITMAP
3E
74
F4
F4
68
28
28
28
50
50
50
ENDCHAR

STARTCHAR periodcentered
ENCODING 183
SWIDTH 240 0
DWIDTH 3 0
BBX 1 2 1 3
BITMAP
80
80
ENDCHAR

STARTCHAR cedilla
ENCODING 184
SWIDTH 320 0
DWIDTH 4 0
BBX 3 3 0 -3
BITMAP
40
20
C0
ENDCHAR

STARTCHAR onesuperior
ENCODING 185
SWIDTH 320 0
DWIDTH 4 0
BBX 3 5 1 4
BITMAP
60
20
40
40
E0
ENDCHAR

STARTCHAR divide
ENCODING 186
SWIDTH 640 0
DWIDTH 8 0
BBX 6 7 1 1
BITMAP
10
10
00
FC
00
20
20
ENDCHAR

STARTCHAR guillemotright
ENCODING 187
SWIDTH 480 0
DWIDTH 6 0
BBX 4 3 1 2
BITMAP
A0
50
A0
ENDCHAR

STARTCHAR onequarter
ENCODING 188
SWIDTH 800 0
DWIDTH 10 0
BBX 9 9 1 0
BITMAP
6200
2400
4400
4800
E900
1300
1500
2F80
2200
ENDCHAR

STARTCHAR onehalf
ENCODING 189
SWIDTH 800 0
DWIDTH 10 0
BBX 8 9 1 0
BITMAP
62
24
44
48
EB
15
12
24
2F
ENDCHAR

STARTCHAR threequarters
ENCODING 190
SWIDTH 800 0
DWIDTH 10 0
BBX 9 9 1 0
BITMAP
7200
1400
6400
1800
E900
1300
1500
2F80
2200
ENDCHAR

STARTCHAR dblunderscore
ENCODING 223
SWIDTH 480 0
DWIDTH 6 0
BBX 6 6 0 -3
BITMAP
00
FC
00
00
FC
00
ENDCHAR

STARTCHAR aleph
ENCODING 224
SWIDTH 560 0
DWIDTH 7 0
BBX 7 9 0 0
BITMAP
00
26
22
32
54
98
88
88
E4
ENDCHAR

STARTCHAR beth
ENCODING 225
SWIDTH 560 0
DWIDTH 7 0
BBX 7 9 0 0
BITMAP
00
3C
04
04
04
08
08
08
FC
ENDCHAR

STARTCHAR gimmel
ENCODING 226
SWIDTH 480 0
DWIDTH 6 0
BBX 6 9 0 0
BITMAP
00
1C
04
04
04
08
18
28
C8
ENDCHAR

STARTCHAR daleth
ENCODING 227
SWIDTH 560 0
DWIDTH 7 0
BBX 7 9 0 0
BITMAP
00
3E
04
04
04
08
08
08
08
ENDCHAR

STARTCHAR he
ENCODING 228
SWIDTH 560 0
DWIDTH 7 0
BBX 7 9 0 0
BITMAP
00
3E
02
02
22
24
44
44
44
ENDCHAR

STARTCHAR waw
ENCODING 229
SWIDTH 320 0
DWIDTH 4 0
BBX 4 9 0 -1
BITMAP
70
10
10
10
20
20
20
20
00
ENDCHAR

STARTCHAR zayin
ENCODING 230
SWIDTH 400 0
DWIDTH 5 0
BBX 5 9 0 -1
BITMAP
38
10
10
10
20
20
20
20
00
ENDCHAR

STARTCHAR het
ENCODING 231
SWIDTH 560 0
DWIDTH 7 0
BBX 7 9 0 0
BITMAP
00
7E
24
24
24
48
48
48
48
ENDCHAR

STARTCHAR teth
ENCODING 232
SWIDTH 640 0
DWIDTH 8 0
BBX 8 9 0 0
BITMAP
00
66
29
29
21
42
42
42
3C
ENDCHAR

STARTCHAR yod
ENCODING 233
SWIDTH 320 0
DWIDTH 4 0
BBX 4 8 0 0
BITMAP
70
10
10
20
20
00
00
00
ENDCHAR

STARTCHAR kaphfinal
ENCODING 234
SWIDTH 560 0
DWIDTH 7 0
BBX 7 11 0 -2
BITMAP
00
7E
04
04
08
08
08
08
10
10
1C
ENDCHAR

STARTCHAR kaph
ENCODING 235
SWIDTH 480 0
DWIDTH 6 0
BBX 6 9 0 0
BITMAP
00
7C
04
04
04
08
08
08
F0
ENDCHAR

STARTCHAR lamed
ENCODING 236
SWIDTH 480 0
DWIDTH 6 0
BBX 6 11 0 0
BITMAP
00
40
40
7C
04
04
08
10
20
40
70
ENDCHAR

STARTCHAR memfinal
ENCODING 237
SWIDTH 560 0
DWIDTH 7 0
BBX 7 9 0 0
BITMAP
00
7E
22
22
22
44
44
44
7C
ENDCHAR

STARTCHAR mem
ENCODING 238
SWIDTH 720 0
DWIDTH 9 0
BBX 9 9 0 0
BITMAP
0000
3700
1880
1080
1080
2100
2100
2100
2E00
ENDCHAR

STARTCHAR nunfinal
ENCODING 239
SWIDTH 320 0
DWIDTH 4 0
BBX 3 11 1 -2
BITMAP
00
E0
20
20
20
40
40
40
80
80
C0
ENDCHAR

STARTCHAR nun
ENCODING 240
SWIDTH 400 0
DWIDTH 5 0
BBX 5 9 0 -1
BITMAP
38
08
08
08
10
10
10
E0
00
ENDCHAR

STARTCHAR samekh
ENCODING 241
SWIDTH 560 0
DWIDTH 7 0
BBX 7 9 0 0
BITMAP
00
7E
22
22
22
44
44
48
30
ENDCHAR

STARTCHAR ayin
ENCODING 242
SWIDTH 560 0
DWIDTH 7 0
BBX 7 11 0 -2
BITMAP
00
36
12
12
12
24
24
28
F0
00
00
ENDCHAR

STARTCHAR pefinal
ENCODING 243
SWIDTH 480 0
DWIDTH 6 0
BBX 6 10 0 -2
BITMAP
7C
44
44
84
88
C8
08
10
10
18
ENDCHAR

STARTCHAR pe
ENCODING 244
SWIDTH 560 0
DWIDTH 7 0
BBX 7 9 0 -1
BITMAP
3E
22
22
42
64
04
04
F8
00
ENDCHAR

STARTCHAR zadikfinal
ENCODING 245
SWIDTH 560 0
DWIDTH 7 0
BBX 7 11 0 -2
BITMAP
00
66
22
22
44
78
40
40
80
80
E0
ENDCHAR

STARTCHAR zadik
ENCODING 246
SWIDTH 560 0
DWIDTH 7 0
BBX 7 9 0 0
BITMAP
00
76
12
12
14
08
08
04
78
ENDCHAR

STARTCHAR kof
ENCODING 247
SWIDTH 560 0
DWIDTH 7 0
BBX 7 11 0 -2
BITMAP
00
7E
02
22
24
48
50
60
B8
80
80
ENDCHAR

STARTCHAR resh
ENCODING 248
SWIDTH 480 0
DWIDTH 6 0
BBX 6 9 0 0
BITMAP
00
7C
04
04
04
08
08
08
08
ENDCHAR

STARTCHAR shin
ENCODING 249
SWIDTH 720 0
DWIDTH 9 0
BBX 9 9 0 0
BITMAP
0000
3580
2480
2480
4880
4900
4900
4900
3E00
ENDCHAR

STARTCHAR taf
ENCODING 250
SWIDTH 560 0
DWIDTH 7 0
BBX 7 9 0 0
BITMAP
00
3E
12
12
12
24
24
24
E4
ENDCHAR
ENDFONT
